<?xml version="1.0" encoding="UTF-8" standalone="no"?>
<!-- Generator: Adobe Illustrator 22.0.0, SVG Export Plug-In . SVG Version: 6.00 Build 0)  -->

<svg
   xmlns:dc="http://purl.org/dc/elements/1.1/"
   xmlns:cc="http://creativecommons.org/ns#"
   xmlns:rdf="http://www.w3.org/1999/02/22-rdf-syntax-ns#"
   xmlns:svg="http://www.w3.org/2000/svg"
   xmlns="http://www.w3.org/2000/svg"
   xmlns:sodipodi="http://sodipodi.sourceforge.net/DTD/sodipodi-0.dtd"
   xmlns:inkscape="http://www.inkscape.org/namespaces/inkscape"
   version="1.1"
   id="Layer_1"
   x="0px"
   y="0px"
   viewBox="0 0 315.00001 314.99999"
   xml:space="preserve"
   preserveAspectRatio="xMinYMid meet"
   sodipodi:docname="snapMoodle.svg"
   width="315"
   height="315"
   inkscape:version="0.92.3 (2405546, 2018-03-11)"><metadata
   id="metadata23"><rdf:RDF><cc:Work
       rdf:about=""><dc:format>image/svg+xml</dc:format><dc:type
         rdf:resource="http://purl.org/dc/dcmitype/StillImage" /><dc:title></dc:title></cc:Work></rdf:RDF></metadata><defs
   id="defs21" /><sodipodi:namedview
   pagecolor="#ffffff"
   bordercolor="#666666"
   borderopacity="1"
   objecttolerance="10"
   gridtolerance="10"
   guidetolerance="10"
   inkscape:pageopacity="0"
   inkscape:pageshadow="2"
   inkscape:window-width="1280"
   inkscape:window-height="636"
   id="namedview19"
   showgrid="false"
   inkscape:zoom="0.33706954"
   inkscape:cx="748.54326"
   inkscape:cy="-78.809071"
   inkscape:window-x="0"
   inkscape:window-y="28"
   inkscape:window-maximized="1"
   inkscape:current-layer="Layer_1"
   showborder="true" />
<g
   id="g120"
   style="display:inline"
   transform="matrix(0.81051413,0,0,0.81051413,-528.73059,-317.84293)"><g
     transform="translate(65.421684,369.97782)"
     inkscape:label="Layer 1"
     id="layer1"><path
       id="path78"
       d="m 899.79394,313.58478 h 10.69086 c -3.1e-4,25.84872 -5.09825,44.66261 -15.29386,56.44172 -10.19617,11.77914 -22.91629,17.66871 -38.16038,17.66871 -12.47289,0 -24.45059,-3.88548 -35.93313,-11.65644 -11.48296,-7.77095 -21.77783,-28.58892 -30.88467,-62.45399 L 764.67351,218.37006 676.17704,384.25963 H 620.0501 L 747.15239,158.00196 c -6.7314,-29.284 -14.84852,-50.96087 -24.35137,-65.030679 -9.50307,-14.069225 -21.28279,-21.103983 -35.33919,-21.104295 -11.28485,3.12e-4 -21.13428,3.558591 -29.54832,10.674847 -8.41413,7.116859 -13.11611,18.118897 -14.10597,33.006137 h -10.69086 c 0.59392,-24.048789 6.43428,-43.312574 17.52112,-57.791414 11.08675,-14.478186 24.94524,-21.717443 41.57552,-21.717791 10.69076,3.48e-4 20.83715,3.640426 30.43921,10.920245 9.60185,7.280494 17.91694,19.714019 24.94532,37.300614 7.02811,17.587196 17.96641,54.028876 32.81497,109.325156 l 21.08472,77.79141 c 8.51289,32.22912 17.47142,53.78329 26.87561,64.66258 9.40375,10.87938 20.63904,16.31905 33.70586,16.31902 22.17334,3e-5 34.74497,-12.92429 37.71493,-38.77301 z"
       style="font-style:normal;font-weight:normal;font-size:502.57669067px;font-family:'Times New Roman';opacity:1;fill:#f98012;fill-opacity:1;stroke:none;stroke-width:1.10006571px;stroke-linecap:butt;stroke-linejoin:miter;stroke-opacity:1"
       inkscape:connector-curvature="0" /></g><g
     id="g16">
	
	
	
	
	
	
	<path
   inkscape:connector-curvature="0"
   id="path14"
   d="m 963.98957,698.79466 64.39073,21.11686 1.5416,-1.96805 C 962.54284,644.81239 929.37625,613.34897 839.70469,572.95699 l -1.32086,1.93269 3.88359,5.58279 c -5.87429,3.47741 -20.16439,12.37928 -39.98364,28.32661 -27.65999,8.28098 -37.40684,26.60034 -48.80342,45.36515 17.87718,-11.10704 36.4463,-24.6801 51.31917,-43.23185 19.63384,-15.69116 33.76144,-24.47644 39.31078,-27.72062 l 32.47884,46.11222 c 0,0 -14.04444,9.58717 -25.9,20.68066 15.00674,51.26645 59.02941,82.07771 110.1356,78.51013 2.47432,-11.13051 3.16482,-29.72011 3.16482,-29.72011 z"
   style="fill:#333333" />
</g></g>
</svg>